<mxfile host="Electron" agent="Mozilla/5.0 (Windows NT 10.0; Win64; x64) AppleWebKit/537.36 (KHTML, like Gecko) draw.io/24.7.8 Chrome/128.0.6613.36 Electron/32.0.1 Safari/537.36" version="24.7.8">
  <diagram name="Página-1" id="mvo2j9_Kl8--TsiZsnuI">
    <mxGraphModel dx="1434" dy="836" grid="1" gridSize="10" guides="1" tooltips="1" connect="1" arrows="1" fold="1" page="1" pageScale="1" pageWidth="827" pageHeight="1169" math="0" shadow="0">
      <root>
        <mxCell id="0" />
        <mxCell id="1" parent="0" />
        <mxCell id="_vs2CIbRQahb-X_VkW8y-3" value="" style="edgeStyle=orthogonalEdgeStyle;rounded=0;orthogonalLoop=1;jettySize=auto;html=1;" parent="1" source="_vs2CIbRQahb-X_VkW8y-1" target="_vs2CIbRQahb-X_VkW8y-2" edge="1">
          <mxGeometry relative="1" as="geometry" />
        </mxCell>
        <mxCell id="aS1wk-j5bgdPbTuSPe_Q-2" style="edgeStyle=orthogonalEdgeStyle;rounded=0;orthogonalLoop=1;jettySize=auto;html=1;entryX=0.5;entryY=0;entryDx=0;entryDy=0;" parent="1" source="_vs2CIbRQahb-X_VkW8y-1" target="6d24d9rk3kJL-LWqCKkq-11" edge="1">
          <mxGeometry relative="1" as="geometry" />
        </mxCell>
        <mxCell id="8b7cBOP46INtT6lsQ6cX-5" value="" style="edgeStyle=orthogonalEdgeStyle;rounded=0;orthogonalLoop=1;jettySize=auto;html=1;" edge="1" parent="1" source="_vs2CIbRQahb-X_VkW8y-1" target="8b7cBOP46INtT6lsQ6cX-3">
          <mxGeometry relative="1" as="geometry" />
        </mxCell>
        <mxCell id="_vs2CIbRQahb-X_VkW8y-1" value="Pagina inicial&amp;nbsp;" style="whiteSpace=wrap;html=1;aspect=fixed;" parent="1" vertex="1">
          <mxGeometry x="40" y="370" width="116" height="116" as="geometry" />
        </mxCell>
        <mxCell id="_vs2CIbRQahb-X_VkW8y-5" value="" style="edgeStyle=orthogonalEdgeStyle;rounded=0;orthogonalLoop=1;jettySize=auto;html=1;" parent="1" source="_vs2CIbRQahb-X_VkW8y-2" target="_vs2CIbRQahb-X_VkW8y-4" edge="1">
          <mxGeometry relative="1" as="geometry" />
        </mxCell>
        <mxCell id="_vs2CIbRQahb-X_VkW8y-7" value="" style="edgeStyle=orthogonalEdgeStyle;rounded=0;orthogonalLoop=1;jettySize=auto;html=1;" parent="1" source="_vs2CIbRQahb-X_VkW8y-2" target="_vs2CIbRQahb-X_VkW8y-6" edge="1">
          <mxGeometry relative="1" as="geometry" />
        </mxCell>
        <mxCell id="_vs2CIbRQahb-X_VkW8y-2" value="login&lt;div&gt;&lt;br&gt;&lt;/div&gt;" style="ellipse;whiteSpace=wrap;html=1;" parent="1" vertex="1">
          <mxGeometry x="190" y="388" width="80" height="80" as="geometry" />
        </mxCell>
        <mxCell id="_vs2CIbRQahb-X_VkW8y-10" style="edgeStyle=orthogonalEdgeStyle;rounded=0;orthogonalLoop=1;jettySize=auto;html=1;" parent="1" source="_vs2CIbRQahb-X_VkW8y-4" target="_vs2CIbRQahb-X_VkW8y-8" edge="1">
          <mxGeometry relative="1" as="geometry" />
        </mxCell>
        <mxCell id="_vs2CIbRQahb-X_VkW8y-4" value="Registro" style="ellipse;whiteSpace=wrap;html=1;" parent="1" vertex="1">
          <mxGeometry x="190" y="290" width="80" height="80" as="geometry" />
        </mxCell>
        <mxCell id="_vs2CIbRQahb-X_VkW8y-9" value="" style="edgeStyle=orthogonalEdgeStyle;rounded=0;orthogonalLoop=1;jettySize=auto;html=1;" parent="1" source="_vs2CIbRQahb-X_VkW8y-6" target="_vs2CIbRQahb-X_VkW8y-8" edge="1">
          <mxGeometry relative="1" as="geometry" />
        </mxCell>
        <mxCell id="_vs2CIbRQahb-X_VkW8y-12" value="" style="edgeStyle=orthogonalEdgeStyle;rounded=0;orthogonalLoop=1;jettySize=auto;html=1;" parent="1" source="_vs2CIbRQahb-X_VkW8y-6" target="_vs2CIbRQahb-X_VkW8y-11" edge="1">
          <mxGeometry relative="1" as="geometry" />
        </mxCell>
        <mxCell id="6d24d9rk3kJL-LWqCKkq-2" value="" style="edgeStyle=orthogonalEdgeStyle;rounded=0;orthogonalLoop=1;jettySize=auto;html=1;" parent="1" source="_vs2CIbRQahb-X_VkW8y-6" target="6d24d9rk3kJL-LWqCKkq-1" edge="1">
          <mxGeometry relative="1" as="geometry" />
        </mxCell>
        <mxCell id="_vs2CIbRQahb-X_VkW8y-6" value="Tela de exibição" style="whiteSpace=wrap;html=1;" parent="1" vertex="1">
          <mxGeometry x="300" y="398" width="120" height="60" as="geometry" />
        </mxCell>
        <mxCell id="_vs2CIbRQahb-X_VkW8y-13" style="edgeStyle=orthogonalEdgeStyle;rounded=0;orthogonalLoop=1;jettySize=auto;html=1;entryX=0;entryY=0.5;entryDx=0;entryDy=0;" parent="1" source="_vs2CIbRQahb-X_VkW8y-8" target="_vs2CIbRQahb-X_VkW8y-11" edge="1">
          <mxGeometry relative="1" as="geometry" />
        </mxCell>
        <mxCell id="_vs2CIbRQahb-X_VkW8y-14" style="edgeStyle=orthogonalEdgeStyle;rounded=0;orthogonalLoop=1;jettySize=auto;html=1;entryX=0.5;entryY=0;entryDx=0;entryDy=0;" parent="1" source="_vs2CIbRQahb-X_VkW8y-8" target="_vs2CIbRQahb-X_VkW8y-6" edge="1">
          <mxGeometry relative="1" as="geometry" />
        </mxCell>
        <mxCell id="_vs2CIbRQahb-X_VkW8y-8" value="Registro da arte" style="rounded=1;whiteSpace=wrap;html=1;" parent="1" vertex="1">
          <mxGeometry x="300" y="300" width="120" height="60" as="geometry" />
        </mxCell>
        <mxCell id="_vs2CIbRQahb-X_VkW8y-21" style="edgeStyle=orthogonalEdgeStyle;rounded=0;orthogonalLoop=1;jettySize=auto;html=1;entryX=0;entryY=0.5;entryDx=0;entryDy=0;" parent="1" source="_vs2CIbRQahb-X_VkW8y-11" target="_vs2CIbRQahb-X_VkW8y-17" edge="1">
          <mxGeometry relative="1" as="geometry" />
        </mxCell>
        <mxCell id="_vs2CIbRQahb-X_VkW8y-23" style="edgeStyle=orthogonalEdgeStyle;rounded=0;orthogonalLoop=1;jettySize=auto;html=1;entryX=1;entryY=0.75;entryDx=0;entryDy=0;" parent="1" source="_vs2CIbRQahb-X_VkW8y-11" target="_vs2CIbRQahb-X_VkW8y-6" edge="1">
          <mxGeometry relative="1" as="geometry">
            <mxPoint x="460" y="440" as="targetPoint" />
            <Array as="points">
              <mxPoint x="500" y="443" />
            </Array>
          </mxGeometry>
        </mxCell>
        <mxCell id="6d24d9rk3kJL-LWqCKkq-8" value="" style="edgeStyle=orthogonalEdgeStyle;rounded=0;orthogonalLoop=1;jettySize=auto;html=1;entryX=0.5;entryY=1;entryDx=0;entryDy=0;entryPerimeter=0;" parent="1" source="_vs2CIbRQahb-X_VkW8y-11" target="aS1wk-j5bgdPbTuSPe_Q-4" edge="1">
          <mxGeometry relative="1" as="geometry" />
        </mxCell>
        <mxCell id="_vs2CIbRQahb-X_VkW8y-11" value="Codice" style="ellipse;whiteSpace=wrap;html=1;" parent="1" vertex="1">
          <mxGeometry x="460" y="340" width="80" height="80" as="geometry" />
        </mxCell>
        <mxCell id="_vs2CIbRQahb-X_VkW8y-18" value="" style="edgeStyle=orthogonalEdgeStyle;rounded=0;orthogonalLoop=1;jettySize=auto;html=1;" parent="1" target="_vs2CIbRQahb-X_VkW8y-17" edge="1">
          <mxGeometry relative="1" as="geometry">
            <mxPoint x="620" y="350" as="sourcePoint" />
          </mxGeometry>
        </mxCell>
        <mxCell id="_vs2CIbRQahb-X_VkW8y-22" style="edgeStyle=orthogonalEdgeStyle;rounded=0;orthogonalLoop=1;jettySize=auto;html=1;entryX=1;entryY=0.5;entryDx=0;entryDy=0;" parent="1" source="_vs2CIbRQahb-X_VkW8y-17" target="_vs2CIbRQahb-X_VkW8y-11" edge="1">
          <mxGeometry relative="1" as="geometry" />
        </mxCell>
        <mxCell id="aS1wk-j5bgdPbTuSPe_Q-1" style="edgeStyle=orthogonalEdgeStyle;rounded=0;orthogonalLoop=1;jettySize=auto;html=1;entryX=1;entryY=0.5;entryDx=0;entryDy=0;" parent="1" source="_vs2CIbRQahb-X_VkW8y-17" target="6d24d9rk3kJL-LWqCKkq-11" edge="1">
          <mxGeometry relative="1" as="geometry">
            <mxPoint x="620" y="630" as="targetPoint" />
            <Array as="points">
              <mxPoint x="620" y="625" />
            </Array>
          </mxGeometry>
        </mxCell>
        <mxCell id="_vs2CIbRQahb-X_VkW8y-17" value="local de exibição&lt;div&gt;(pesquisa de galeria)&lt;/div&gt;" style="ellipse;whiteSpace=wrap;html=1;rounded=1;" parent="1" vertex="1">
          <mxGeometry x="580" y="340" width="80" height="80" as="geometry" />
        </mxCell>
        <mxCell id="6d24d9rk3kJL-LWqCKkq-4" value="" style="edgeStyle=orthogonalEdgeStyle;rounded=0;orthogonalLoop=1;jettySize=auto;html=1;" parent="1" source="6d24d9rk3kJL-LWqCKkq-1" edge="1">
          <mxGeometry relative="1" as="geometry">
            <mxPoint x="260" y="540" as="targetPoint" />
          </mxGeometry>
        </mxCell>
        <mxCell id="6d24d9rk3kJL-LWqCKkq-6" style="edgeStyle=orthogonalEdgeStyle;rounded=0;orthogonalLoop=1;jettySize=auto;html=1;entryX=0.5;entryY=1;entryDx=0;entryDy=0;" parent="1" source="6d24d9rk3kJL-LWqCKkq-1" target="_vs2CIbRQahb-X_VkW8y-6" edge="1">
          <mxGeometry relative="1" as="geometry" />
        </mxCell>
        <mxCell id="6d24d9rk3kJL-LWqCKkq-1" value="&lt;div&gt;previa de outras galerias,&lt;/div&gt;reels" style="ellipse;whiteSpace=wrap;html=1;" parent="1" vertex="1">
          <mxGeometry x="320" y="500" width="80" height="80" as="geometry" />
        </mxCell>
        <mxCell id="6d24d9rk3kJL-LWqCKkq-5" style="edgeStyle=orthogonalEdgeStyle;rounded=0;orthogonalLoop=1;jettySize=auto;html=1;entryX=0;entryY=0.5;entryDx=0;entryDy=0;" parent="1" target="6d24d9rk3kJL-LWqCKkq-1" edge="1">
          <mxGeometry relative="1" as="geometry">
            <mxPoint x="260" y="540" as="sourcePoint" />
          </mxGeometry>
        </mxCell>
        <mxCell id="6d24d9rk3kJL-LWqCKkq-9" style="edgeStyle=orthogonalEdgeStyle;rounded=0;orthogonalLoop=1;jettySize=auto;html=1;entryX=0.5;entryY=0;entryDx=0;entryDy=0;exitX=1;exitY=0.5;exitDx=0;exitDy=0;exitPerimeter=0;" parent="1" source="aS1wk-j5bgdPbTuSPe_Q-4" target="_vs2CIbRQahb-X_VkW8y-17" edge="1">
          <mxGeometry relative="1" as="geometry" />
        </mxCell>
        <mxCell id="6d24d9rk3kJL-LWqCKkq-15" style="edgeStyle=orthogonalEdgeStyle;rounded=0;orthogonalLoop=1;jettySize=auto;html=1;entryX=0.5;entryY=0;entryDx=0;entryDy=0;exitX=0;exitY=0.5;exitDx=0;exitDy=0;exitPerimeter=0;" parent="1" source="aS1wk-j5bgdPbTuSPe_Q-4" target="_vs2CIbRQahb-X_VkW8y-8" edge="1">
          <mxGeometry relative="1" as="geometry" />
        </mxCell>
        <mxCell id="aS1wk-j5bgdPbTuSPe_Q-3" style="edgeStyle=orthogonalEdgeStyle;rounded=0;orthogonalLoop=1;jettySize=auto;html=1;entryX=0.5;entryY=1;entryDx=0;entryDy=0;exitX=0.5;exitY=0;exitDx=0;exitDy=0;exitPerimeter=0;" parent="1" source="aS1wk-j5bgdPbTuSPe_Q-4" target="6d24d9rk3kJL-LWqCKkq-11" edge="1">
          <mxGeometry relative="1" as="geometry">
            <mxPoint x="98" y="680" as="targetPoint" />
            <Array as="points">
              <mxPoint x="500" y="150" />
              <mxPoint x="710" y="150" />
              <mxPoint x="710" y="710" />
              <mxPoint x="98" y="710" />
            </Array>
          </mxGeometry>
        </mxCell>
        <mxCell id="8b7cBOP46INtT6lsQ6cX-6" style="edgeStyle=orthogonalEdgeStyle;rounded=0;orthogonalLoop=1;jettySize=auto;html=1;exitX=1;exitY=0.5;exitDx=0;exitDy=0;entryX=0.5;entryY=1;entryDx=0;entryDy=0;" edge="1" parent="1" source="6d24d9rk3kJL-LWqCKkq-11" target="_vs2CIbRQahb-X_VkW8y-17">
          <mxGeometry relative="1" as="geometry" />
        </mxCell>
        <mxCell id="6d24d9rk3kJL-LWqCKkq-11" value="busca" style="ellipse;whiteSpace=wrap;html=1;" parent="1" vertex="1">
          <mxGeometry x="58" y="585" width="80" height="80" as="geometry" />
        </mxCell>
        <mxCell id="6d24d9rk3kJL-LWqCKkq-16" value="Recupera o dado&amp;nbsp;&lt;div&gt;auxiliando no registro&amp;nbsp;&lt;/div&gt;" style="text;html=1;align=center;verticalAlign=middle;resizable=0;points=[];autosize=1;strokeColor=none;fillColor=none;fontColor=#FFFFFF;" parent="1" vertex="1">
          <mxGeometry x="300" y="180" width="140" height="40" as="geometry" />
        </mxCell>
        <mxCell id="6d24d9rk3kJL-LWqCKkq-17" value="Alimento" style="text;html=1;align=center;verticalAlign=middle;resizable=0;points=[];autosize=1;strokeColor=none;fillColor=none;" parent="1" vertex="1">
          <mxGeometry x="495" y="288" width="70" height="30" as="geometry" />
        </mxCell>
        <mxCell id="aS1wk-j5bgdPbTuSPe_Q-4" value="import de dados" style="shape=cylinder3;whiteSpace=wrap;html=1;boundedLbl=1;backgroundOutline=1;size=15;" parent="1" vertex="1">
          <mxGeometry x="470" y="180" width="60" height="80" as="geometry" />
        </mxCell>
        <mxCell id="aS1wk-j5bgdPbTuSPe_Q-5" value="" style="shape=cylinder3;whiteSpace=wrap;html=1;boundedLbl=1;backgroundOutline=1;size=15;" parent="1" vertex="1">
          <mxGeometry x="58" y="20" width="32" height="50" as="geometry" />
        </mxCell>
        <mxCell id="aS1wk-j5bgdPbTuSPe_Q-6" value="BD" style="text;html=1;align=center;verticalAlign=middle;resizable=0;points=[];autosize=1;strokeColor=none;fillColor=none;fontColor=#FFFFFF;" parent="1" vertex="1">
          <mxGeometry x="90" y="28" width="40" height="30" as="geometry" />
        </mxCell>
        <mxCell id="aS1wk-j5bgdPbTuSPe_Q-7" value="" style="whiteSpace=wrap;html=1;aspect=fixed;" parent="1" vertex="1">
          <mxGeometry x="49" y="80" width="50" height="50" as="geometry" />
        </mxCell>
        <mxCell id="aS1wk-j5bgdPbTuSPe_Q-8" value="Fluxo de pessoas&lt;div&gt;alto&lt;/div&gt;" style="text;html=1;align=center;verticalAlign=middle;resizable=0;points=[];autosize=1;strokeColor=none;fillColor=none;fontColor=#FFFFFF;" parent="1" vertex="1">
          <mxGeometry x="90" y="85" width="120" height="40" as="geometry" />
        </mxCell>
        <mxCell id="aS1wk-j5bgdPbTuSPe_Q-9" value="" style="ellipse;whiteSpace=wrap;html=1;aspect=fixed;" parent="1" vertex="1">
          <mxGeometry x="54" y="150" width="40" height="40" as="geometry" />
        </mxCell>
        <mxCell id="aS1wk-j5bgdPbTuSPe_Q-10" value="Fluxo medio" style="text;html=1;align=center;verticalAlign=middle;resizable=0;points=[];autosize=1;strokeColor=none;fillColor=none;fontColor=#FFFFFF;" parent="1" vertex="1">
          <mxGeometry x="94" y="155" width="90" height="30" as="geometry" />
        </mxCell>
        <mxCell id="aS1wk-j5bgdPbTuSPe_Q-12" style="edgeStyle=orthogonalEdgeStyle;rounded=0;orthogonalLoop=1;jettySize=auto;html=1;entryX=0.5;entryY=0;entryDx=0;entryDy=0;entryPerimeter=0;" parent="1" source="6d24d9rk3kJL-LWqCKkq-11" target="aS1wk-j5bgdPbTuSPe_Q-4" edge="1">
          <mxGeometry relative="1" as="geometry">
            <Array as="points">
              <mxPoint x="98" y="710" />
              <mxPoint x="710" y="710" />
              <mxPoint x="710" y="150" />
              <mxPoint x="500" y="150" />
            </Array>
          </mxGeometry>
        </mxCell>
        <mxCell id="aS1wk-j5bgdPbTuSPe_Q-15" style="edgeStyle=orthogonalEdgeStyle;rounded=0;orthogonalLoop=1;jettySize=auto;html=1;entryX=0;entryY=0;entryDx=0;entryDy=0;" parent="1" source="aS1wk-j5bgdPbTuSPe_Q-13" target="_vs2CIbRQahb-X_VkW8y-2" edge="1">
          <mxGeometry relative="1" as="geometry">
            <mxPoint x="180" y="400" as="targetPoint" />
            <Array as="points">
              <mxPoint x="181" y="230" />
              <mxPoint x="181" y="400" />
            </Array>
          </mxGeometry>
        </mxCell>
        <mxCell id="aS1wk-j5bgdPbTuSPe_Q-13" value="Usuarios" style="shape=cylinder3;whiteSpace=wrap;html=1;boundedLbl=1;backgroundOutline=1;size=15;" parent="1" vertex="1">
          <mxGeometry x="202" y="200" width="56" height="60" as="geometry" />
        </mxCell>
        <mxCell id="aS1wk-j5bgdPbTuSPe_Q-16" style="edgeStyle=orthogonalEdgeStyle;rounded=0;orthogonalLoop=1;jettySize=auto;html=1;exitX=0;exitY=0;exitDx=0;exitDy=0;entryX=0;entryY=0.5;entryDx=0;entryDy=0;entryPerimeter=0;" parent="1" source="_vs2CIbRQahb-X_VkW8y-2" target="aS1wk-j5bgdPbTuSPe_Q-13" edge="1">
          <mxGeometry relative="1" as="geometry">
            <Array as="points">
              <mxPoint x="180" y="400" />
              <mxPoint x="180" y="230" />
            </Array>
          </mxGeometry>
        </mxCell>
        <mxCell id="aS1wk-j5bgdPbTuSPe_Q-17" style="edgeStyle=orthogonalEdgeStyle;rounded=0;orthogonalLoop=1;jettySize=auto;html=1;entryX=0.5;entryY=1;entryDx=0;entryDy=0;entryPerimeter=0;" parent="1" source="_vs2CIbRQahb-X_VkW8y-4" target="aS1wk-j5bgdPbTuSPe_Q-13" edge="1">
          <mxGeometry relative="1" as="geometry" />
        </mxCell>
        <mxCell id="aS1wk-j5bgdPbTuSPe_Q-18" style="edgeStyle=orthogonalEdgeStyle;rounded=0;orthogonalLoop=1;jettySize=auto;html=1;entryX=0;entryY=0.5;entryDx=0;entryDy=0;entryPerimeter=0;" parent="1" source="_vs2CIbRQahb-X_VkW8y-8" target="aS1wk-j5bgdPbTuSPe_Q-4" edge="1">
          <mxGeometry relative="1" as="geometry">
            <Array as="points">
              <mxPoint x="360" y="220" />
            </Array>
          </mxGeometry>
        </mxCell>
        <mxCell id="8b7cBOP46INtT6lsQ6cX-1" value="chat usuarios" style="whiteSpace=wrap;html=1;aspect=fixed;" vertex="1" parent="1">
          <mxGeometry x="180" y="501" width="80" height="80" as="geometry" />
        </mxCell>
        <mxCell id="8b7cBOP46INtT6lsQ6cX-4" value="" style="edgeStyle=orthogonalEdgeStyle;rounded=0;orthogonalLoop=1;jettySize=auto;html=1;" edge="1" parent="1" source="8b7cBOP46INtT6lsQ6cX-3" target="_vs2CIbRQahb-X_VkW8y-1">
          <mxGeometry relative="1" as="geometry" />
        </mxCell>
        <mxCell id="8b7cBOP46INtT6lsQ6cX-3" value="preview&lt;div&gt;apresentação&lt;/div&gt;" style="whiteSpace=wrap;html=1;aspect=fixed;" vertex="1" parent="1">
          <mxGeometry x="40" y="210" width="116" height="116" as="geometry" />
        </mxCell>
        <mxCell id="8b7cBOP46INtT6lsQ6cX-7" style="edgeStyle=orthogonalEdgeStyle;rounded=0;orthogonalLoop=1;jettySize=auto;html=1;entryX=0.275;entryY=0.963;entryDx=0;entryDy=0;entryPerimeter=0;" edge="1" parent="1" source="6d24d9rk3kJL-LWqCKkq-1" target="_vs2CIbRQahb-X_VkW8y-17">
          <mxGeometry relative="1" as="geometry" />
        </mxCell>
      </root>
    </mxGraphModel>
  </diagram>
</mxfile>
